<svg width="17" height="21" viewBox="0 0 17 21" fill="none" xmlns="http://www.w3.org/2000/svg">
<path fill-rule="evenodd" clip-rule="evenodd" d="M8.25008 4.50005C6.179 4.50005 4.50005 6.179 4.50005 8.25008C4.50005 10.3212 6.179 12.0001 8.25008 12.0001C10.3212 12.0001 12.0001 10.3212 12.0001 8.25008C12.0001 6.179 10.3212 4.50005 8.25008 4.50005ZM8.25008 10.5001C7.00743 10.5001 6.00006 9.49274 6.00006 8.25008C6.00006 7.00743 7.00743 6.00006 8.25008 6.00006C9.49274 6.00006 10.5001 7.00743 10.5001 8.25008C10.5001 9.49274 9.49274 10.5001 8.25008 10.5001ZM8.25008 0C3.69583 0.00516646 0.00516658 3.69583 0 8.25008C0 11.1939 1.36033 14.3139 3.93754 17.2736C5.09557 18.611 6.39893 19.8153 7.82352 20.8643C8.08186 21.0452 8.42581 21.0452 8.68415 20.8643C10.1061 19.8149 11.4069 18.6106 12.5626 17.2736C15.1361 14.3139 16.5002 11.1939 16.5002 8.25008C16.495 3.69583 12.8043 0.00516646 8.25008 0ZM8.25008 19.3127C6.70038 18.0939 1.50002 13.6173 1.50002 8.25008C1.50002 4.52212 4.52212 1.50002 8.25008 1.50002C11.978 1.50002 15.0002 4.52212 15.0002 8.25008C15.0002 13.6155 9.79979 18.0939 8.25008 19.3127Z" fill="#638763"/>
</svg>
