<svg width="15" height="15" viewBox="0 0 15 15" fill="none" xmlns="http://www.w3.org/2000/svg">
<path fill-rule="evenodd" clip-rule="evenodd" d="M14.7802 13.719C15.0732 14.0121 15.0732 14.4872 14.7802 14.7802C14.4872 15.0732 14.012 15.0732 13.719 14.7802L7.49998 8.56025L1.28096 14.7802C0.987925 15.0732 0.512814 15.0732 0.219775 14.7802C-0.0732647 14.4872 -0.0732647 14.0121 0.219775 13.719L6.43973 7.5L0.219775 1.28098C-0.0732647 0.98794 -0.0732647 0.512829 0.219775 0.21979C0.512814 -0.0732495 0.987925 -0.0732495 1.28096 0.21979L7.49998 6.43975L13.719 0.21979C14.012 -0.0732495 14.4872 -0.0732495 14.7802 0.21979C15.0732 0.512829 15.0732 0.98794 14.7802 1.28098L8.56024 7.5L14.7802 13.719Z" fill="#121712"/>
</svg>
