<svg width="18" height="15" viewBox="0 0 18 15" fill="none" xmlns="http://www.w3.org/2000/svg">
<path fill-rule="evenodd" clip-rule="evenodd" d="M17.9996 7.5C17.9996 7.91419 17.6638 8.24996 17.2496 8.24996H2.56078L8.03078 13.719C8.32382 14.0121 8.32382 14.4872 8.03078 14.7802C7.73774 15.0732 7.26263 15.0732 6.96959 14.7802L0.219973 8.0306C0.0791481 7.88993 2.02644e-05 7.69905 2.02644e-05 7.5C2.02644e-05 7.30095 0.0791481 7.11007 0.219973 6.9694L6.96959 0.21979C7.26263 -0.0732495 7.73774 -0.0732495 8.03078 0.21979C8.32382 0.512829 8.32382 0.98794 8.03078 1.28098L2.56078 6.75004H17.2496C17.6638 6.75004 17.9996 7.08581 17.9996 7.5Z" fill="#121712"/>
</svg>
