<svg width="18" height="15" viewBox="0 0 18 15" fill="none" xmlns="http://www.w3.org/2000/svg">
<path fill-rule="evenodd" clip-rule="evenodd" d="M17.9995 7.5C17.9995 7.91419 17.6637 8.24996 17.2495 8.24996H2.56065L8.03066 13.719C8.3237 14.0121 8.3237 14.4872 8.03066 14.7802C7.73762 15.0732 7.26251 15.0732 6.96947 14.7802L0.219851 8.0306C0.079026 7.88993 -0.000101799 7.69905 -0.000101799 7.5C-0.000101799 7.30095 0.079026 7.11007 0.219851 6.9694L6.96947 0.21979C7.26251 -0.0732495 7.73762 -0.0732495 8.03066 0.21979C8.3237 0.512829 8.3237 0.98794 8.03066 1.28098L2.56065 6.75004H17.2495C17.6637 6.75004 17.9995 7.08581 17.9995 7.5Z" fill="#121712"/>
</svg>
