<svg width="18" height="15" viewBox="0 0 18 15" fill="none" xmlns="http://www.w3.org/2000/svg">
<path fill-rule="evenodd" clip-rule="evenodd" d="M17.9996 7.5C17.9996 7.91419 17.6638 8.24996 17.2496 8.24996H2.56075L8.03075 13.719C8.32379 14.0121 8.32379 14.4872 8.03075 14.7802C7.73771 15.0732 7.2626 15.0732 6.96956 14.7802L0.219942 8.0306C0.0791176 7.88993 -1.02514e-05 7.69905 -1.02514e-05 7.5C-1.02514e-05 7.30095 0.0791176 7.11007 0.219942 6.9694L6.96956 0.21979C7.2626 -0.0732495 7.73771 -0.0732495 8.03075 0.21979C8.32379 0.512829 8.32379 0.98794 8.03075 1.28098L2.56075 6.75004H17.2496C17.6638 6.75004 17.9996 7.08581 17.9996 7.5Z" fill="#121712"/>
</svg>
