<svg width="20" height="20" viewBox="0 0 20 20" fill="none" xmlns="http://www.w3.org/2000/svg">
<path fill-rule="evenodd" clip-rule="evenodd" d="M19.7748 18.6875L14.9656 13.8793C17.8613 10.4028 17.5104 5.26368 14.1691 2.21306C10.8278 -0.837569 5.67804 -0.720531 2.47877 2.47874C-0.7205 5.67801 -0.837538 10.8278 2.21309 14.1691C5.26371 17.5104 10.4029 17.8613 13.8793 14.9656L18.6876 19.7748C18.9878 20.0751 19.4746 20.0751 19.7748 19.7748C20.0751 19.4746 20.0751 18.9878 19.7748 18.6875ZM1.55806 8.4736C1.55806 4.65423 4.65427 1.55802 8.47363 1.55802C12.293 1.55802 15.3892 4.65423 15.3892 8.4736C15.3892 12.293 12.293 15.3892 8.47363 15.3892C4.65602 15.3849 1.56229 12.2912 1.55806 8.4736Z" fill="#638763"/>
</svg>
