<svg width="20" height="20" viewBox="0 0 20 20" fill="none" xmlns="http://www.w3.org/2000/svg">
<path fill-rule="evenodd" clip-rule="evenodd" d="M18.9743 6.36024L2.05522 0.0886769L2.03983 0.0838681C1.48421 -0.107438 0.868148 0.0343983 0.452118 0.449406C0.0360881 0.864414 -0.107263 1.48013 0.0826753 2.03622C0.0838446 2.04147 0.0854533 2.04662 0.0874841 2.05161L6.36386 18.9707C6.57528 19.5894 7.15941 20.003 7.81322 19.9969H7.84207C8.50947 19.9918 9.09511 19.551 9.28469 18.9111L11.5506 11.5479L18.9137 9.28204C19.5483 9.08677 19.9861 8.5065 19.9996 7.84269C20.0132 7.17889 19.5994 6.58124 18.9734 6.36024H18.9743ZM18.4617 7.81152L11.0986 10.0774C10.6119 10.2273 10.2309 10.6083 10.081 11.0949L7.81514 18.4581L7.80937 18.4417L1.53492 1.5313L18.4444 7.80383L18.4598 7.8096L18.4617 7.81152Z" fill="#121712"/>
</svg>
