<svg width="42" height="41" viewBox="0 0 42 41" fill="none" xmlns="http://www.w3.org/2000/svg">
<path d="M8.75 35.0795C7.7875 35.0795 6.95625 34.7594 6.25625 34.119C5.58542 33.4508 5.25 32.6574 5.25 31.7386V8.35226C5.25 7.43351 5.58542 6.65397 6.25625 6.01363C6.95625 5.34544 7.7875 5.01135 8.75 5.01135H33.25C34.2125 5.01135 35.0292 5.34544 35.7 6.01363C36.4 6.65397 36.75 7.43351 36.75 8.35226V31.7386C36.75 32.6574 36.4 33.4508 35.7 34.119C35.0292 34.7594 34.2125 35.0795 33.25 35.0795H8.75ZM8.75 31.7386H33.25V8.35226H8.75V31.7386ZM10.5 28.3977H31.5L24.9375 20.0454L19.6875 26.7273L15.75 21.7159L10.5 28.3977ZM8.75 31.7386V8.35226V31.7386Z" fill="#1D1B20"/>
</svg>
