<svg width="34" height="28" viewBox="0 0 34 28" fill="none" xmlns="http://www.w3.org/2000/svg">
<path d="M30.0769 3.65217H25.5458L23.3178 0.541739C23.1984 0.375187 23.0368 0.238613 22.8472 0.144117C22.6576 0.0496212 22.4458 0.000120225 22.2308 0H11.7692C11.5542 0.000120225 11.3424 0.0496212 11.1528 0.144117C10.9632 0.238613 10.8016 0.375187 10.6822 0.541739L8.4526 3.65217H3.92308C2.88261 3.65217 1.88476 4.03696 1.14904 4.72187C0.413323 5.40679 0 6.33573 0 7.30435V24.3478C0 25.3164 0.413323 26.2454 1.14904 26.9303C1.88476 27.6152 2.88261 28 3.92308 28H30.0769C31.1174 28 32.1152 27.6152 32.851 26.9303C33.5867 26.2454 34 25.3164 34 24.3478V7.30435C34 6.33573 33.5867 5.40679 32.851 4.72187C32.1152 4.03696 31.1174 3.65217 30.0769 3.65217ZM31.3846 24.3478C31.3846 24.6707 31.2468 24.9803 31.0016 25.2087C30.7564 25.437 30.4237 25.5652 30.0769 25.5652H3.92308C3.57626 25.5652 3.24364 25.437 2.9984 25.2087C2.75316 24.9803 2.61538 24.6707 2.61538 24.3478V7.30435C2.61538 6.98148 2.75316 6.67183 2.9984 6.44352C3.24364 6.21522 3.57626 6.08696 3.92308 6.08696H9.15385C9.36919 6.08709 9.58124 6.03771 9.77116 5.9432C9.96107 5.84869 10.123 5.71198 10.2425 5.54522L12.4688 2.43478H21.5295L23.7575 5.54522C23.877 5.71198 24.0389 5.84869 24.2288 5.9432C24.4188 6.03771 24.6308 6.08709 24.8462 6.08696H30.0769C30.4237 6.08696 30.7564 6.21522 31.0016 6.44352C31.2468 6.67183 31.3846 6.98148 31.3846 7.30435V24.3478ZM17 8.52174C15.5775 8.52174 14.1869 8.91443 13.0042 9.65016C11.8214 10.3859 10.8995 11.4316 10.3552 12.6551C9.81081 13.8785 9.66837 15.2248 9.94589 16.5236C10.2234 17.8225 10.9084 19.0155 11.9143 19.9519C12.9201 20.8883 14.2017 21.526 15.5968 21.7844C16.992 22.0427 18.4382 21.9101 19.7524 21.4034C21.0666 20.8966 22.1899 20.0384 22.9802 18.9373C23.7705 17.8362 24.1923 16.5417 24.1923 15.2174C24.1901 13.4422 23.4317 11.7403 22.0833 10.4851C20.735 9.22983 18.9069 8.52375 17 8.52174ZM17 19.4783C16.0948 19.4783 15.2099 19.2284 14.4572 18.7602C13.7045 18.292 13.1179 17.6265 12.7715 16.848C12.4251 16.0694 12.3344 15.2127 12.511 14.3861C12.6876 13.5596 13.1235 12.8004 13.7636 12.2045C14.4037 11.6086 15.2192 11.2028 16.1071 11.0384C16.9949 10.874 17.9152 10.9584 18.7515 11.2809C19.5878 11.6034 20.3027 12.1495 20.8056 12.8502C21.3085 13.5509 21.5769 14.3747 21.5769 15.2174C21.5769 16.3474 21.0947 17.4312 20.2364 18.2303C19.378 19.0293 18.2139 19.4783 17 19.4783Z" fill="black"/>
</svg>
